Coordinates
version=1
nRows=6
nColumns=36
inDegrees=yes

Units are S.I. units (second, meters, Newtons, ...)
If the header above contains a line with 'inDegrees', this indicates whether rotational values are in degrees (yes) or radians (no).

endheader
time	pelvis_tilt	pelvis_list	pelvis_rotation	pelvis_tx	pelvis_ty	pelvis_tz	hip_flexion_r	hip_adduction_r	hip_rotation_r	knee_angle_r	knee_angle_r_beta	ankle_angle_r	subtalar_angle_r	mtp_angle_r	hip_flexion_l	hip_adduction_l	hip_rotation_l	knee_angle_l	knee_angle_l_beta	ankle_angle_l	subtalar_angle_l	mtp_angle_l	lumbar_extension	lumbar_bending	lumbar_rotation	arm_flex_r	arm_add_r	arm_rot_r	elbow_flex_r	pro_sup_r	arm_flex_l	arm_add_l	arm_rot_l	elbow_flex_l	pro_sup_l
      3.61016950	    -10.70419528	      2.93228410	      3.12478191	     -0.37573273	      1.46766412	     -0.05839536	     21.08506411	     -3.14009319	     -2.48786888	     41.45570389	      0.72353853	    -35.38521032	    -28.10699676	     -7.49999987	     30.41028641	      4.43366950	     -3.54901990	     51.39008643	      0.89692621	    -30.74178129	     -7.84088309	     -7.49999987	    -17.26920085	      0.58412564	     -2.56491701	     38.90947740	    -35.39482412	     20.95982223	     27.17899226	     85.26034708	     11.92685085	    -61.21255095	    -21.35965101	     81.88905402	     80.98679270
      3.62711860	    -10.70595864	      2.84448334	      2.58042604	     -0.35835891	      1.46905807	     -0.04524153	     24.76649250	     -3.18349347	     -2.64058720	     41.62742148	      0.72653556	    -35.39011602	    -29.37982634	     -7.49999987	     32.84460438	      3.95679975	     -4.06399753	     51.20387187	      0.89367615	    -33.57288396	     -9.21825217	     -7.49999987	    -19.00042041	      1.08012668	     -1.22549454	     33.38665563	    -35.85200412	     20.98776115	     25.50134750	     85.18575636	      9.38288615	    -60.76804984	    -21.01202892	     79.62686851	     80.83415258
      3.64406780	    -10.62815485	      2.91673071	      2.30746266	     -0.32672349	      1.46988544	     -0.03227687	     27.39575409	     -2.74282713	     -2.63508314	     41.22403269	      0.71949510	    -36.10096239	    -27.56676155	     -7.49999987	     33.42475046	      2.77551273	     -5.20155301	     49.53645100	      0.86457417	    -32.79713517	     -8.18807592	     -7.49999987	    -20.16982358	      0.98795220	      1.41569537	     23.55993552	    -34.42949809	      9.70733308	     27.79542259	     88.02399936	     13.02275302	    -59.34498087	    -13.57369388	     73.09286750	     78.92664396
      3.66101700	    -10.56652324	      3.11312325	      2.73285123	     -0.31388510	      1.45856208	     -0.03533124	     30.29421357	     -2.84518324	     -1.79741626	     40.74330951	      0.71110490	    -35.80594684	    -25.52325883	     -7.49999987	     35.21328171	      2.10234875	     -6.22588526	     46.89981518	      0.81855619	    -33.41492812	     -7.29380086	     -7.49999987	    -21.71084500	      1.15889079	      0.95119754	     18.38541545	    -32.04801867	      8.68681438	     28.08268038	     87.21151484	      8.79162603	    -59.95425461	    -12.71301635	     68.93387973	     78.58921846
      3.67796610	    -10.51365437	      3.22247851	      2.36739209	     -0.28766366	      1.45342081	     -0.04595126	     33.12406626	     -4.10595835	     -2.35768088	     39.08151448	      0.68210110	    -39.09053388	    -23.29633162	     -7.49999987	     35.98194781	      2.50497681	     -6.54130575	     45.10576913	      0.78724418	    -31.27389013	     -5.81244938	     -7.49999987	    -23.32581082	      1.80642675	      2.03126043	     11.24985300	    -29.67581411	      2.04482024	     30.27857507	     85.65499997	     -0.02896577	    -56.96894376	    -14.97382781	     70.44228478	     77.86498312
      3.69491530	     -9.63136815	      3.16934113	      2.14684660	     -0.25448043	      1.44297795	     -0.04763092	     33.05454101	     -4.95588166	     -2.65983168	     35.37023519	      0.61732706	    -38.64696393	    -19.71152321	     -7.49999987	     35.15033971	      1.78251806	     -8.42900902	     41.60535660	      0.72615046	    -35.22626456	     -5.94095621	     -7.49999987	    -24.24163969	      2.73973125	      2.58686300	      4.90677079	    -27.65240837	     -0.60142960	     29.37674806	     85.43239580	     -6.39426907	    -53.48363365	    -13.86808359	     70.43072966	     77.85813605
